<?xml version="1.0" encoding="UTF-8" standalone="no"?>
<svg width="334px" height="525px" viewBox="0 0 334 525" version="1.1" xmlns="http://www.w3.org/2000/svg" xmlns:xlink="http://www.w3.org/1999/xlink">
    <!-- Generator: Sketch 40.3 (33839) - http://www.bohemiancoding.com/sketch -->
    <title>pin</title>
    <desc>Created with Sketch.</desc>
    <defs></defs>
    <g id="Gotham-(10/24)-" stroke="none" stroke-width="1" fill="none" fill-rule="evenodd">
        <g id="Assets" transform="translate(-1123.000000, -1335.000000)">
            <g id="City-Copy" transform="translate(1123.000000, 1335.000000)">
                <g id="Page-1">
                    <path d="M176.542857,377.045455 L176.542857,515.454545 C176.542857,520.728409 172.272429,525 167,525 C161.727571,525 157.457143,520.728409 157.457143,515.454545 L157.457143,377.045455 C157.457143,363.156818 157.457143,338.496136 131.343114,330.2775 C56.2408286,313.940455 0,247.079318 0,167.045455 C0,74.7886364 74.7492,0 167,0 C259.231714,0 334,74.7695455 334,167.045455 C334,247.065 277.768714,313.940455 202.656886,330.2775 C176.542857,338.500909 176.542857,363.161591 176.542857,377.045455" id="Fill-3" fill="#FFFFFF"></path>
                    <path d="M167,19.0909091 L167,19.0909091 C248.691629,19.0909091 314.914286,85.3315909 314.914286,167.045455 C314.914286,248.759318 248.691629,315 167,315 C85.3083714,315 19.0857143,248.759318 19.0857143,167.045455 C19.0857143,85.3315909 85.3083714,19.0909091 167,19.0909091" id="Fill-5" fill="#FF00BF"></path>
                    <path d="M167,128.863636 L167,128.863636 C188.080171,128.863636 205.171429,145.959545 205.171429,167.045455 C205.171429,188.131364 188.080171,205.227273 167,205.227273 C145.919829,205.227273 128.828571,188.131364 128.828571,167.045455 C128.828571,145.959545 145.919829,128.863636 167,128.863636" id="Fill-7" fill="#FFFFFF"></path>
                </g>
            </g>
        </g>
    </g>
</svg>